<?xml version="1.0" encoding="UTF-8" standalone="no"?>
<svg xmlns="http://www.w3.org/2000/svg" enable-background="new 0 0 1400 980"
    viewBox="0 0 174.87756 584.79999" height="584.79999" width="174.87756" y="0px" x="0px"
    id="Layer_1">

    <g transform="translate(-1170.6612,-197.6)" id="XMLID_11_">
        <g id="XMLID_12_">
            <path style="fill:#000080;fill-opacity:1" id="path28"
                d="m 1258.1,197.6 c -64.2,64.1 -92.5,154.6 -86.7,336.9 3.3,103.7 17.7,176.9 27.4,215.7 4.7,18.9 23.4,32.2 45,32.2 h 14.3 14.3 c 21.6,0 40.3,-13.5 45,-32.5 9.7,-38.9 24,-111.9 27.4,-215.5 5.8,-182.2 -22.5,-272.7 -86.7,-336.8 z"
                fill="#96ba49" />
        </g>
    </g>

    <g style="display:inline" transform="translate(-1170.6612,-197.6)" id="XMLID_89_">
        <path style="fill:#09342f;fill-opacity:1" id="path68"
            d="m 1198,567.9 c 5.1,85.7 17.5,146.1 25.1,176.2 1.9,7.6 10.8,13.3 20.7,13.3 h 14.3 14.3 c 10.1,0 18.8,-5.7 20.8,-13.5 7.5,-29.9 19.9,-89.8 25,-174.6 -16.2,-14.4 -37.5,-23.2 -60.9,-23.2 -22.6,0 -43.3,8.2 -59.3,21.8 z"
            fill="#976046" />
    </g>
    <g style="display:inline" transform="translate(-1170.6612,-197.6)" id="XMLID_91_">
        <path style="fill:#f1fbef;fill-opacity:1" id="path71"
            d="m 1196.6,445.7 c -1.2,26.8 -1.2,56 -0.2,88 0.2,5.1 0.4,10 0.6,14.9 17.2,-11.7 38,-18.5 60.3,-18.5 23,0 44.4,7.3 61.9,19.6 0.2,-5.3 0.4,-10.6 0.6,-16 1,-31.3 1,-60.1 -0.1,-86.4 -16.4,-15.2 -38.3,-24.5 -62.4,-24.5 -23.2,-0.1 -44.5,8.6 -60.7,22.9 z"
            fill="#e5efbd" />
    </g>

</svg>
