<svg id="Capa_1" enable-background="new 0 0 512 512" height="512" viewBox="0 0 512 512" width="512" xmlns="http://www.w3.org/2000/svg"><path d="m468.334 228.437c-45.35-69.099-123.506-114.741-212.334-114.741s-166.984 45.642-212.334 114.741h-38.488c-3.306 0-5.765 3.057-5.056 6.287l32.341 147.304c2.087 9.505 10.507 16.276 20.237 16.276h406.597c9.731 0 18.151-6.772 20.238-16.276l32.341-147.304c.709-3.229-1.75-6.286-5.056-6.286h-38.486z" fill="#e7e7e7"/><path d="m57.169 209.765c-4.773 6.009-9.281 12.238-13.503 18.672h424.668c-4.222-6.434-8.73-12.663-13.503-18.672z" fill="#cecece"/><path d="m465.857 379.632h-419.714c-6.115 0-11.718-2.519-15.66-6.627l1.981 9.023c2.087 9.505 10.507 16.276 20.237 16.276h406.597c9.731 0 18.151-6.772 20.237-16.276l1.981-9.023c-3.941 4.108-9.544 6.627-15.659 6.627z" fill="#cecece"/><path d="m7.179 266.864h497.642l7.057-32.14c.709-3.229-1.75-6.287-5.056-6.287h-501.644c-3.306 0-5.765 3.057-5.056 6.287z" fill="#22a7ff"/><path d="m237.84 326.908c0-4.297-3.483-7.78-7.78-7.78h-11.635c-4.997 0-8.78 4.867-7.536 9.715 8.494 33.074 39.816 43.203 42.78 44.092 1.51.465 3.152.465 4.662 0 2.964-.889 34.285-11.018 42.78-44.092 1.244-4.848-2.539-9.715-7.536-9.715h-11.636c-4.297 0-7.78 3.483-7.78 7.78s3.483 7.78 7.78 7.78h.353c-4.945 9.33-12.447 15.26-18.512 18.815v-36.576c7.535-3.08 12.863-10.48 12.863-19.109 0-11.382-9.261-20.642-20.643-20.642s-20.643 9.26-20.643 20.642c0 8.63 5.328 16.029 12.863 19.109v36.574c-6.069-3.557-13.568-9.486-18.512-18.813h.351c4.298 0 7.781-3.483 7.781-7.78zm18.16-34.172c2.803 0 5.083 2.28 5.083 5.082 0 2.803-2.28 5.083-5.083 5.083s-5.083-2.28-5.083-5.083c0-2.802 2.28-5.082 5.083-5.082z" fill="#838383"/></svg>